<?xml version="1.0" encoding="iso-8859-1"?>
<!-- Generator: Adobe Illustrator 19.0.0, SVG Export Plug-In . SVG Version: 6.00 Build 0)  -->
<svg version="1.1" id="Capa_1" xmlns="http://www.w3.org/2000/svg" xmlns:xlink="http://www.w3.org/1999/xlink" x="0px" y="0px"
	 viewBox="0 0 290.281 290.281" style="enable-background:new 0 0 290.281 290.281;" xml:space="preserve">
<path id="XMLID_963_" d="M209.329,79.238C183.062,55.09,169.178,27.69,169.178,0h-30v173.645
	c-6.239-2.564-13.111-3.921-20.305-3.921c-17.458,0-35.266,7.796-48.857,21.388c-25.344,25.343-28.516,63.407-7.072,84.853
	c9.232,9.232,22.016,14.316,35.995,14.316c17.458,0,35.266-7.796,48.857-21.388c11.843-11.843,19.308-26.842,21.018-42.234
	c0.244-2.198,0.354-4.379,0.354-6.537h0.01V80.106c5.808,7.304,12.425,14.394,19.848,21.218
	c31.772,29.21,25.067,66.542,9.671,89.637l24.962,16.641C247.357,172.054,252.117,118.576,209.329,79.238z"/>
<g>
</g>
<g>
</g>
<g>
</g>
<g>
</g>
<g>
</g>
<g>
</g>
<g>
</g>
<g>
</g>
<g>
</g>
<g>
</g>
<g>
</g>
<g>
</g>
<g>
</g>
<g>
</g>
<g>
</g>
</svg>
