<?xml version="1.0" encoding="UTF-8" standalone="no"?>
<!-- Created with Inkscape (http://www.inkscape.org/) -->

<svg
   xmlns:dc="http://purl.org/dc/elements/1.1/"
   xmlns:cc="http://creativecommons.org/ns#"
   xmlns:rdf="http://www.w3.org/1999/02/22-rdf-syntax-ns#"
   xmlns:svg="http://www.w3.org/2000/svg"
   xmlns="http://www.w3.org/2000/svg"
   version="1.1"
   width="15"
   height="7"
   id="svg12909">
  <defs
     id="defs12911" />
  <metadata
     id="metadata12914">
    <rdf:RDF>
      <cc:Work
         rdf:about="">
        <dc:format>image/svg+xml</dc:format>
        <dc:type
           rdf:resource="http://purl.org/dc/dcmitype/StillImage" />
        <dc:title></dc:title>
      </cc:Work>
    </rdf:RDF>
  </metadata>
  <g
     transform="translate(-358.55608,-308.79968)"
     id="layer1">
    <path
       d="m 366.06603,308.79968 c -2.30683,0 -5.1108,0.79545 -6.02558,2.50568 l 0,-1.84943 c 0,-0.35795 -0.27841,-0.65625 -0.63637,-0.65625 c -0.35795,0 -0.63636,0.2983 -0.63636,0.65625 l 0,5.6875 c 0,0.35795 0.27841,0.65625 0.63636,0.65625 c 0.35796,0 0.63637,-0.2983 0.63637,-0.65625 l 0,-1.84942 c 0.91477,1.71022 3.71875,2.50567 6.02558,2.50567 c 2.30682,0 5.09091,-0.79545 6.00567,-2.50567 l 0,1.84942 c 0,0.35795 0.27842,0.65625 0.63637,0.65625 c 0.35796,0 0.63637,-0.2983 0.63637,-0.65625 l 0,-5.6875 c 0,-0.35795 -0.27841,-0.65625 -0.63637,-0.65625 c -0.35795,0 -0.63637,0.2983 -0.63637,0.65625 l 0,1.84943 c -0.91476,-1.71023 -3.69886,-2.50568 -6.00567,-2.50568 z m -0.83524,0.65625 c 1.94887,0 3.40058,1.49148 3.40058,3.46023 c 0,1.13352 -0.47729,2.22727 -1.75,2.22727 c -1.94887,0 -3.40058,-1.49147 -3.40058,-3.46023 c 0,-1.13352 0.47727,-2.22727 1.75,-2.22727 z m 0,0"
       id="path4340"
       style="fill:#000000;fill-opacity:1;stroke:none" />
  </g>
</svg>
