<?xml version="1.0"?>
<svg width="175" height="375" xmlns="http://www.w3.org/2000/svg">
 <!-- Created with ImageBot - http://www.imagebot.com/ -->
 <g id="imagebot_1">
  <title>Layer 1</title>
  <path d="m24.586491,372.472687c-14.995851,-1.585938 -26.173871,-17.144257 -21.324421,-31.684631c8.03525,-21.884521 31.215999,-37.009125 54.25935,-38.217163c9.497959,-3.113373 26.092251,12.442413 22.409771,-4.06543c0.606033,-98.774994 0.302399,-197.553009 0.377327,-296.329403c7.195053,-2.122814 7.784851,3.181414 7.906075,9.121614c2.229256,22.192369 23.920502,33.422644 37.263397,48.791777c19.239647,18.795513 34.406914,44.799572 30.635735,72.509594c-3.856171,13.225403 -1.045929,25.911453 0.376129,39.243744c0.084961,14.392487 -5.22821,28.121338 -0.507401,42.265213c2.099304,13.695221 -4.047287,27.498596 2.541672,40.409622c2.998993,22.683701 0.872223,47.820847 -13.145477,66.611893c-8.889404,2.401184 3.716248,-10.382996 2.91272,-14.77655c7.887329,-22.683716 9.089417,-51.939774 -10.653793,-69.162247c-15.454674,-13.452957 -33.121124,-24.154083 -49.969063,-35.768661c-0.89595,44.515976 -0.606049,89.053223 -0.860947,133.580414c-6.354111,16.198334 -19.995651,28.705475 -36.518715,34.269745c-8.163448,2.923218 -17.04414,4.633514 -25.702389,3.20047l0,0l0.000031,0l-0.000021,0l0.000021,0zm123.362545,-157.200089c-7.926025,-28.272903 -33.127335,-47.43306 -57.735115,-61.242676c-6.572708,0.718353 2.905243,18.199402 6.092941,24.323074c11.076172,16.240646 27.960327,27.323349 40.912163,41.988022c4.303513,1.81337 13.037979,19.770432 11.720963,7.380188c0.166168,-4.166107 -0.123764,-8.365814 -0.990952,-12.448624l0,0l0,0l0,0.000015zm0.979691,-38.566376c0.016281,-23.807327 -18.167511,-42.718887 -35.509026,-56.905075c-7.506203,-4.249763 -20.97155,-17.903763 -26.003563,-13.592461c1.84938,13.932007 9.406769,26.231224 20.58667,34.684044c14.819893,14.606277 30.836884,28.757645 40.725983,47.281448c0.967209,-3.451431 0.059998,-7.771667 0.199951,-11.467957l-0.000015,0zm0.016281,-48.671066c-0.503601,-26.991272 -22.174889,-47.739899 -43.193901,-61.939407c-5.872986,-3.111668 -23.070847,-18.318722 -17.230316,-2.216789c3.90863,21.30175 24.817688,31.54155 38.065643,46.527138c8.95063,6.801659 16.740501,23.456894 22.494743,27.386871c0.177429,-3.251343 -0.046204,-6.506424 -0.1362,-9.757813l0,0l0.000031,0z" id="imagebot_2" stroke-linecap="round" stroke-linejoin="round" stroke-width="4" stroke="#000000" fill="#000000"/>
 </g>
</svg>