<?xml version="1.0" encoding="iso-8859-1"?>
<!-- Generator: Adobe Illustrator 19.0.0, SVG Export Plug-In . SVG Version: 6.00 Build 0)  -->
<svg version="1.1" id="Capa_1" xmlns="http://www.w3.org/2000/svg" xmlns:xlink="http://www.w3.org/1999/xlink" x="0px" y="0px"
	 viewBox="0 0 450 450" style="enable-background:new 0 0 450 450;" xml:space="preserve">
<path id="XMLID_967_" d="M312.718,190.697c14.861-34.204,12.911-77.958-23.528-111.459C262.922,55.09,249.037,27.69,249.037,0h-30
	v333.364c-6.239-2.564-13.111-3.921-20.305-3.921c-17.458,0-35.266,7.796-48.857,21.388c-25.344,25.343-28.516,63.407-7.072,84.853
	c9.232,9.232,22.016,14.316,35.995,14.316c17.458,0,35.266-7.796,48.857-21.388c11.843-11.843,19.308-26.842,21.018-42.234
	c0.244-2.198,0.354-6.766,0.354-8.924h0.011V239.826c5.808,7.304,12.425,14.393,19.848,21.217
	c31.773,29.21,25.067,66.542,9.672,89.637l24.961,16.641c17.785-26.678,24.903-63.452,9.265-96.772
	C323.25,246.357,325.31,217.411,312.718,190.697z M268.885,101.324c19.993,18.38,24.744,39.974,21.688,59.215
	c-0.458-0.435-0.913-0.869-1.383-1.301c-26.233-24.116-40.114-51.477-40.15-79.129C254.847,87.412,261.463,94.5,268.885,101.324z
	 M249.044,160.115c5.806,7.301,12.421,14.387,19.841,21.209c19.909,18.303,24.708,39.794,21.729,58.974
	c-0.471-0.448-0.941-0.896-1.425-1.341C263.048,214.924,249.175,187.67,249.044,160.115z"/>
<g>
</g>
<g>
</g>
<g>
</g>
<g>
</g>
<g>
</g>
<g>
</g>
<g>
</g>
<g>
</g>
<g>
</g>
<g>
</g>
<g>
</g>
<g>
</g>
<g>
</g>
<g>
</g>
<g>
</g>
</svg>
