<?xml version="1.0" encoding="iso-8859-1"?>
<!-- Generator: Adobe Illustrator 19.0.0, SVG Export Plug-In . SVG Version: 6.00 Build 0)  -->
<svg version="1.1" id="Capa_1" xmlns="http://www.w3.org/2000/svg" xmlns:xlink="http://www.w3.org/1999/xlink" x="0px" y="0px"
	 viewBox="0 0 420.906 420.906" style="enable-background:new 0 0 420.906 420.906;" xml:space="preserve">
<path id="XMLID_1010_" d="M406.688,49.77c-9.233-9.231-22.016-14.316-35.995-14.316c-17.458,0-35.266,7.796-48.857,21.388
	c-11.843,11.843-19.308,26.842-21.018,42.234c-0.244,2.198-0.354,4.379-0.354,6.537h-0.01V269.5l-120,23.439V182.089
	c6.239,2.564,13.111,3.921,20.305,3.921c17.458,0,35.266-7.796,48.857-21.388c25.344-25.343,28.516-63.407,7.072-84.853
	c-9.233-9.23-22.016-14.316-35.995-14.316c-17.458,0-35.266,7.796-48.857,21.388c-11.843,11.843-19.308,26.842-21.018,42.234
	c-0.244,2.198-0.354,4.379-0.354,6.537h-0.01V298.8L30,322.328v-110.38c6.239,2.564,13.111,3.921,20.305,3.921
	c17.458,0,35.266-7.796,48.857-21.388c25.344-25.343,28.516-63.407,7.072-84.853c-9.232-9.232-22.016-14.316-35.995-14.316
	c-17.458,0-35.266,7.796-48.857,21.388C9.539,128.543,2.074,143.542,0.364,158.935c-0.244,2.198-0.355,4.379-0.354,6.537H0v219.981
	l330.453-59.859V152.089c6.239,2.564,13.111,3.921,20.305,3.921c17.458,0,35.266-7.796,48.857-21.388
	C424.959,109.279,428.131,71.215,406.688,49.77z"/>
<g>
</g>
<g>
</g>
<g>
</g>
<g>
</g>
<g>
</g>
<g>
</g>
<g>
</g>
<g>
</g>
<g>
</g>
<g>
</g>
<g>
</g>
<g>
</g>
<g>
</g>
<g>
</g>
<g>
</g>
</svg>
